<svg width="395" height="350" viewBox="0 0 395 350" fill="none" xmlns="http://www.w3.org/2000/svg"><path d="M285.652 99.43s-7.123-2.437-21.023-1.914c-7.992.348-16.505 2.436-18.416 3.307-3.823 1.74-9.73 2.958-18.764.87-16.853-4.003-15.463-17.057-14.247-23.323 2.258-12.009 10.077-19.145 13.204-26.803 2.085-5.047 30.231-6.092 47.084 9.747 8.687 7.832 12.857 30.98 12.162 38.116z" fill="#321011"/><path d="M271.229 57.31l13.031 42.642 3.822 9.921s-5.559 7.136-18.764 9.921c-9.034 1.914-15.115 2.088-19.112 1.74-3.301-.348-7.297-1.044-5.212-7.136 2.954-9.05 1.911-14.794 1.911-14.794l-4.691-25.585 29.015-16.709z" fill="#EA9D7D"/><path d="M273.316 80.285c-4.344 6.614-11.989 12.183-16.332 14.272-6.081 2.959-10.425 3.655-10.425 3.655l-3.822-21.234 28.494-19.667 1.563 2.958 1.217 4.874c.173.174 3.301 9.05-.695 15.142z" fill="url(#a)"/><path d="M287.04 110.221h.174a.955.955 0 0 0 .521-.87l-8.166-25.063c-1.563-5.221-6.254-22.8-6.254-22.8a.957.957 0 0 0-.869-.523.956.956 0 0 0-.521.87l6.254 22.801c1.39 4.7 8.166 24.889 8.166 24.889 0 .522.348.696.695.696z" fill="#CF7653"/><path d="M228.142 12.58c-3.823 4.874-5.039 9.05-5.734 14.098l-.521 9.399c0 7.31.521 17.579 1.39 23.322 1.737 9.921 6.428 15.839 11.988 17.58 5.56 1.74 15.637-1.915 22.413-5.396 5.733-2.96 9.034-6.092 9.903-9.747.869-3.83 2.606-8.702 2.606-8.702l9.904-6.788s7.644-26.282-9.209-37.595c-14.594-9.746-35.964-4.699-42.74 3.83z" fill="#EA9D7D"/><path d="M241.173 77.848c1.911 0 3.475-.348 6.95-1.218 5.56-1.393 13.378-5.744 17.374-9.573 3.822-3.829 3.475-7.484 3.475-7.658 0-.348 0-.87-.347-.87-.348 0-.522.348-.695.696-.174.696-.174 3.655-3.302 6.788-3.648 3.655-11.467 7.832-16.679 9.224-5.386 1.219-6.428 1.567-10.424 1.219-3.823-.348-5.908-1.567-5.908-1.567-.695-.522-.868-.522-.521 0 .348.348 2.433 2.089 6.255 2.785 1.564.174 2.606.174 3.822.174z" fill="#B76349"/><path d="M250.035 39.209a1.36 1.36 0 0 0 .348-1.74c-.174-.175-2.954-4.352-9.208-3.83-.695 0-1.217.697-1.217 1.393 0 .696.695 1.218 1.39 1.218 4.691-.348 6.603 2.61 6.776 2.785.695.522 1.738.348 1.911.174zm-25.887-3.133c.174 0 .521 0 .695-.174 1.216-.87 2.606-.696 2.78-.696.695.174 1.39-.348 1.563-1.045.174-.696-.347-1.392-1.042-1.566-.174 0-2.606-.696-4.865 1.218-.521.348-.521 1.219-.174 1.74.174.349.695.523 1.043.523z" fill="#4F2B23"/><path d="M240.48 67.058c6.602-.349 9.382-5.048 10.077-7.659.174-.696-.174-1.392-.869-1.566-.695-.174-1.39.174-1.564.87 0 .174-1.39 5.396-7.644 5.744-.695 0-1.216.696-1.216 1.218 0 .87.521 1.392 1.216 1.392z" fill="#CF7653"/><path d="M234.919 57.485h.347c.695 0 1.043-.697 1.043-1.219 0-.696-.695-1.044-1.217-1.044-.347 0-1.216 0-1.563-1.044-.348-1.044.521-2.611.868-3.133.348-.522.348-1.218-.173-1.567-.522-.348-1.217-.348-1.564.175-.174.348-2.085 2.784-1.39 5.22.695 2.09 2.432 2.612 3.649 2.612z" fill="#B4603F"/><path d="M243.955 48.086a2.434 2.434 0 0 1-2.432-2.436 2.434 2.434 0 0 1 2.432-2.437 2.434 2.434 0 0 1 2.432 2.437 2.434 2.434 0 0 1-2.432 2.436z" fill="#4F2B23"/><path d="M244.476 44.953c.348 0 1.39.174 1.564-.174.174-.522-.695-1.392-1.216-1.566-1.737-.87-3.127-.696-3.649-.696a.87.87 0 0 0 0 1.74c.522 0 1.564 0 2.954.522 0 .174.174.174.347.174zM225.884 46.694a2.434 2.434 0 0 1-2.432-2.437 2.434 2.434 0 0 1 2.432-2.436 2.434 2.434 0 0 1 2.432 2.437 2.434 2.434 0 0 1-2.432 2.436z" fill="#4F2B23"/><path d="M226.405 43.561c.348 0 1.39.348 1.564 0 .174-.522-.695-1.392-1.216-1.74-1.738-.87-3.127-.696-3.649-.696a.87.87 0 0 0 0 1.74c.522 0 1.564 0 2.954.522 0 .174.174.174.347.174z" fill="#4F2B23"/><path d="M287.387 110.221h.174a.957.957 0 0 0 .521-.87l-8.166-25.063c-1.563-5.221-6.254-22.8-6.254-22.8a.958.958 0 0 0-.869-.523.956.956 0 0 0-.521.87l6.254 22.801c1.39 4.7 8.166 24.889 8.166 24.889 0 .522.348.696.695.696z" fill="#CF7653"/><path d="M262.892 43.038l-14.247-9.572c-9.556-4.526-23.108-3.655-23.108-3.655l11.815-8.18h17.026l8.514 21.407z" fill="url(#b)"/><path d="M262.196 3.006s10.077 1.568 17.027 12.358c4.343 6.788 7.992 7.485 14.768 10.443 4.691 2.089 9.034 9.921 8.166 18.972-.869 9.746 2.606 12.88 10.077 17.056 7.471 4.178 13.03 10.443 10.424 24.541s-16.853 16.709-25.54 16.361c-8.861-.348-11.988-1.567-15.289-7.484-7.471-13.402-11.815-50.996-11.815-50.996s4.17-10.095.348-25.76c-3.996-15.838-8.166-15.49-8.166-15.49z" fill="#321011"/><path d="M269.319 61.835l.696.523-.87.522.174-1.045z" fill="#A84D3B"/><path d="M268.451 45.475S262.37 50 257.679 40.428c-4.517-9.573-6.081-17.753-6.081-17.753l-1.042 5.395c-.174.697-.695 1.045-1.216 1.045h-30.232c-.868 0-1.563-.87-1.563-1.74.695-4.526 3.301-17.058 14.768-21.757 14.247-5.918 25.192-3.48 25.192-3.48l7.819 7.135 4.17 14.446.521 12.532-1.564 9.224z" fill="#321011"/><path d="M274.183 61.14c-5.086 0-9.208-4.442-9.208-9.921 0-5.48 4.122-9.921 9.208-9.921s9.208 4.441 9.208 9.92c0 5.48-4.122 9.921-9.208 9.921z" fill="#EA9D7D"/><path d="M273.664 55.57c-2.303 0-4.17-1.949-4.17-4.352 0-2.403 1.867-4.35 4.17-4.35s4.169 1.947 4.169 4.35c0 2.403-1.866 4.352-4.169 4.352z" fill="url(#c)"/><path d="M268.104 57.833c1.563 1.74 3.822 2.61 6.081 2.61 4.691 0 8.513-4.177 8.513-9.224 0-5.048-3.822-9.225-8.513-9.225-3.302 0-6.255 2.089-7.645 5.048 0 0-.348.174-.869-.175-.521-.348-.347-1.044-.347-1.044 1.737-3.133 5.038-5.395 8.687-5.395 5.56 0 10.077 4.699 10.077 10.617 0 5.743-4.517 10.617-10.077 10.617-2.433 0-4.344-.697-6.081-2.089l.174-1.74z" fill="#B76349"/><path d="M275.054 40.428s1.737-21.408-4.518-30.807C264.108.223 257.332.223 257.332.223s-.695-.348-5.907-.174c-5.213.174-6.255 1.914-6.255 1.914s7.297-.348 11.293 1.567c4.691 2.262 10.251 7.31 11.293 17.23 1.043 9.921.695 21.582.695 21.582s1.911-2.088 6.603-1.914z" fill="url(#d)"/><path d="M104.856 215.876c-34.484-.982-67.82-5.897-67.82-5.897s-12.004 3.16-24.251-2.335c-1.082-.194-1.72-1.93-2.596-3.596-.43-1.028 1.164-2.14.886-3.085.027-.778-1.914-.846-2.123-1.555-.195-1.097-1.208-3.236-.1-3.82 3.881-2.044-.182-3.667-.059-4.987.221-1.861 1.884-2.737 2.356-2.876l9.497-.366c1.789-.015-2.4-2.5-4.842-3.832-2.663-1.652-4.024-4.971 1.135-3.543s9.651 1.898 11.024 2.648c1.304.513 6.851 1.955 9.876 4.398 1.97 1.472 4.12 4.429 10.18 4.565 9.872.037 44.309-6.538 61.139-9.838 8.29-1.422 20.78 34.926-4.302 34.119z" fill="#EA9D7D"/><path d="M74.823 214.35c-21.465-2.003-37.717-4.134-37.717-4.134s-11.354 2.325-24.252-2.335c-4.452-1.637 8.424-9.673 16.216-10.177 52.92-3.82 54.974 17.516 45.753 16.646z" fill="url(#e)"/><path d="M12.06 181.682c1.166 2.222 6.742 5.067 8.573 6.066.334 1.57 1.807 6.139 6.398 8.248 5.742 2.539 8.916.704 9.151.635.319-.223.568-.681.277-1.237-.222-.319-.68-.569-1.235-.277-.152-.083-2.841 1.224-7.515-.732-4.521-1.874-5.648-7.443-5.648-7.443a1.324 1.324 0 0 0-.597-.722c-2.982-1.43-8.78-4.594-7.727-5.803.166-.306.929.111 1.47.208 1.081.193 2.385.707 4.243.928.694.18 1.54.444 2.316.471 5.02.956 11.496 2.509 15.27 5.757 3.69 3.402 5.992 4.262 9.237 4.844.541.097.86-.126.957-.668.096-.541-.126-.861-.667-.958-3.092-.498-5.006-1.345-8.474-4.427-4.08-3.415-10.944-4.981-16.116-6.02-.846-.264-1.775-.375-2.316-.472l-4.008-.998c-.845-.263-1.15-.43-1.539-.443-1.082-.194-2.911.987-2.05 3.043z" fill="#CC7A5E"/><path d="M21.66 191.678c-.15 2.097-3.048 2.696-6.459 2.42-3.494-.123-6.42-.927-6.256-3.414.262-3.028 3.049-2.696 6.46-2.42 3.633.595 6.503.774 6.256 3.414z" fill="#EA9D7D"/><path d="M8.268 190.116c-.083.153-.097.542-.18.695a2.877 2.877 0 0 0 .695 2.361c.971 1.125 2.969 1.818 6.074 1.928 2.094.151 4.964.331 6.42-1.254.72-.598 1.052-1.209.927-2.07.122-3.501-3.206-3.93-6.464-4.123l-.389-.013c-2.787-.332-4.88-.484-6.252.948-.319.222-.651.833-.831 1.528zm12.605 1.924c-.526 1.695-3.008 1.53-5.49 1.365-2.717-.096-4.41-.623-5.006-1.345-.153-.084-.61-.333-.583-1.111.263-.848.581-1.07.9-1.293.887-.903 3.286-.585 5.144-.363l.388.013c3.647.207 4.48.859 4.91 1.887 0 0-.18.695-.263.847z" fill="#CC7A5E"/><path d="M21.208 197.971c-.15 2.097-3.048 2.696-6.46 2.42-3.493-.123-6.42-.927-6.255-3.414.261-3.028 3.049-2.696 6.46-2.42 3.646.206 6.28.455 6.255 3.414z" fill="#EA9D7D"/><path d="M8.41 199.311c.972 1.125 2.97 1.818 6.075 1.928 2.094.152 4.811.248 6.419-1.254.72-.597 1.288-1.278 1.163-2.139.275-3.418-3.982-3.957-7.24-4.15-2.788-.332-4.882-.484-6.253.948-.561.486-1.648 2.668-.163 4.667zm6.365.302c-2.718-.095-4.41-.622-5.006-1.344-.305-.167-.805-1.431.317-2.404.887-.903 3.286-.585 5.144-.364 4.187.304 5.338.734 5.353 2.526-.691 2.001-3.326 1.752-5.808 1.586z" fill="#CC7A5E"/><path d="M21.238 203.736c.015 1.792-2.494 2.404-5.586 1.906-3.023-.263-5.339-.734-5.188-2.832.234-2.25 2.494-2.404 5.587-1.906 2.8-.057 5.269.498 5.187 2.832z" fill="#EA9D7D"/><path d="M15.544 206.574c2.4.318 4.354-.002 5.629-.892.72-.598 1.053-1.209.997-1.834a2.878 2.878 0 0 0-.695-2.362c-1.124-1.207-3.218-1.359-5.311-1.511-2.4-.318-4.424-.234-5.546.739-.424.125-1.55 1.176-.932 3.317.556 1.888 4.709 2.51 5.858 2.543zm4.837-2.712c-.083.153-.013.389-.249.459-.72.598-2.357.696-4.215.474-4.034-.22-4.548-1.095-4.521-1.873-.056-.625.263-.847.346-1 .72-.598 2.662-.529 4.132-.322 1.788-.014 3.41.277 4.243.929.07.236.291.556.264 1.333z" fill="#CC7A5E"/><path d="M48.478 191.846l-1.748 18.865c-.303 2.015 1.182 4.014 3.511 4.097l18.373 1.504-.242-28.672-16.194.676c-2.108.237-3.715 1.738-3.7 3.53z" fill="url(#f)"/><path d="M301.873 106.38c-8.135-14.151-47.332-13.742-95.438 14.704-45.639 26.82-69.701 39.057-93.673 39.847-26.385.861-37.505.936-46.219 12.235-8.713 11.298-7.976 34.691-7.15 44.456.824 9.765 15.34 28.192 53.177 26.644 37.907-1.311 72.254-36.474 96.437-54.393 24.335-17.835 56.203-28.784 68.545-46.029 14.627-20.359 33.775-21.008 24.321-37.464z" fill="url(#g)"/><path d="M113.47 160.723l-1.757 83.669-16.14-.88c-7.96-1.371-15.63-4.368-15.63-4.368s.064-8.488 1.155-35.243l1.815-40.828s4.159-1.1 15.14-1.647c4.769-.767 15.417-.703 15.417-.703z" fill="url(#h)"/><g clip-path="url(#i)"><path d="M180.979 459.925c.173-24.787 6.048-140.057 9.677-178.019h29.032l64.629 33.975-25.921 157.565c-1.901 11.787-12.615 152.712-12.96 161.205.173 2.427-1.728 4.507-4.148 4.68l-57.371.174c-2.938 0-5.703-2.427-5.876-5.547-1.901-23.401 2.592-149.072 2.938-174.033z" fill="url(#j)"/><path d="M182.534 639.505l57.199-.173c4.147-.174 5.703-2.081 5.53-4.334.518-11.094 4.32-64.309 5.703-86.15 2.764-26.347 4.665-50.788 5.875-74.535 3.802-15.081 11.924-67.603 11.924-67.603l-42.684-62.922s-31.623 102.617-36.462 148.899c-4.838 45.761-7.085 146.818-7.085 146.818z" fill="url(#k)"/><path d="M327.691 450.219l26.439 179.579c.691 4.68 0 7.28-3.629 7.627l-54.607 1.906c-4.493 0-6.912-1.733-8.294-5.893-9.85-32.068-36.29-140.231-46.831-171.432L196.876 282.08h117.681l13.134 168.139z" fill="#933E1C"/><path d="M296.932 639.505c-5.357 0-8.122-2.254-9.159-5.547-5.184-17.681-38.536-142.485-45.448-168.832-7.603-24.441-39.573-164.326-43.029-182.526 15.898-.694 55.644.693 55.644.693l76.899 354.652-34.907 1.56z" fill="url(#l)"/><path d="M328.902 617.837l1.728-.346c-.346-1.56-27.995-152.192-29.378-162.072-1.382-9.707-17.971-171.953-18.144-173.513l-1.728.174 18.144 173.512c1.383 10.054 29.032 160.685 29.378 162.245z" fill="#C97C61"/><path d="M246.189 619.814l-.01-1.734-68.605.411.011 1.733 68.604-.41zm7.887-106.153l1.728-.52-26.612-101.404c-5.011-24.094-30.414-128.791-30.76-129.831l-1.728.347c.173 1.04 25.748 105.563 30.76 129.658 4.838 24.267 26.267 100.883 26.612 101.75z" fill="#9B5945"/><path d="M282.589 315.881c2.074 0 3.284-.174 3.456-.174l-.172-1.733c-.173 0-13.652 1.733-24.885-6.414-12.614-9.187-14.17-25.48-14.17-25.654l-1.728.174c0 .693 1.555 17.333 14.862 26.867 8.467 6.067 17.799 6.934 22.637 6.934z" fill="#C97C61"/><path d="M319.57 350.549s-18.318-13.174-38.536-17.334c-55.126-11.614-94.18 4.506-94.18 4.506l3.802-55.815h123.902l5.012 68.643z" fill="url(#m)"/></g><path d="M196.521 186.802c.695-8.528 1.911-27.499 10.077-46.471 11.12-24.715 31.795-47.515 57.683-46.296 6.254.174 26.061.522 37.18 46.296 1.39 5.918 26.757 141.502 26.757 141.502H190.44c0-.175 5.386-88.417 6.081-95.031z" fill="url(#n)"/><path d="M234.222 128.844s-6.95 33.766-6.602 69.445l1.216 83.37h91.215s7.123-42.816-11.815-84.24c-18.938-41.423-74.014-68.575-74.014-68.575z" fill="url(#o)"/><path d="M366.442 287.228c-1.738 34.461-7.471 67.878-7.471 67.878s2.953 12.01-2.954 24.019c-.347 1.044-2.085 1.567-3.648 2.437-.869.522-1.738 1.392-2.607 1.566-.695.174-.868-.522-1.911-.348-1.39.174-2.953 1.044-4.17.696-3.474-1.392-3.301-.348-4.691-.522-1.911-.348-2.606-1.914-2.953-2.262l-.348-9.399c.348-1.74-2.606 2.089-3.822 4.525-1.737 2.611-5.039 4.003-3.475-1.218 1.564-5.222 2.259-9.747 2.78-10.965.521-1.393 2.259-6.788 4.691-9.747 1.564-2.088 4.517-4.177 4.865-10.095.174-9.92-5.386-44.556-8.166-61.439-1.39-8.702 35.27-20.015 33.88 4.874z" fill="#EA9D7D"/><path d="M363.835 317.339c-2.433 21.582-5.039 37.768-5.039 37.768s2.085 11.662-2.954 24.019c-1.737 4.351-9.555-8.702-9.903-16.535-2.085-53.084 18.938-54.651 17.896-45.252z" fill="url(#p)"/><path d="M356.538 380.17c1.216-2.088 2.606-7.31 3.128-10.269.868-4.351-.174-14.62 0-14.968-.174-.522-.522-.87-.869-.87-.521.174-.869.522-.869.87 0 0 1.043 10.443.174 14.62-1.043 5.222-2.606 9.225-3.822 10.443-.869.87-1.564.696-1.564.696-.348-.174-.521-.348-.695-.174-.174 0-.348.348-.521.522 0 0-.695 1.393-1.738 1.393-1.216 0-1.39-.87-1.39-1.044-.173-.523-.521-.697-.868-.871-.522.174-.869.348-.869.871 0 .348-.174 1.566-1.911 1.392-.695 0-1.216-.174-1.39-.348-.695-.696-.695-1.741-.695-1.741 0-.348-.348-.87-.869-.87-.347 0-.869.348-.869.696-.173.174-.347 1.219-1.911 1.219-1.39 0-1.563-.348-1.911-3.481l-.521-8.877c0-.348-.348-.87-.695-.87a.956.956 0 0 0-.869.522c-1.39 2.785-4.17 7.484-5.56 8.18-.173 0-.521-.174-.521-.696 0-.174 1.564-6.266 1.564-6.266 1.042-4.873 2.78-12.531 6.428-16.36 3.301-3.655 4.344-5.918 5.213-9.225.173-.522-.174-1.044-.695-1.044-.522 0-1.043.174-1.043.696-.521 2.959-1.737 4.874-4.517 8.355-3.996 4.177-5.734 12.009-6.776 17.23 0 0-1.042 4.178-1.39 4.874-.869 2.61-.174 3.481.348 4.003 3.127 1.497 5.559-3.655 6.949-6.092 0 1.567.348 5.918.348 5.918.173 2.785.521 4.873 3.648 5.047a2.983 2.983 0 0 0 2.606-.87c.174.348.348.696.695.87a3.748 3.748 0 0 0 2.676 1.114c1.564 0 2.537-.766 3.058-1.462.521.522 1.112.905 2.259.975 1.389 0 2.432-.975 2.953-1.671.695 0 2.467-.801 3.301-2.437z" fill="#CC7A5E"/><path d="M340.554 342.053l18.938 1.045c2.085.174 3.996-1.567 3.996-3.655l1.043-18.276-28.668 1.393 1.043 16.186c0 1.915 1.737 3.307 3.648 3.307z" fill="url(#q)"/><path d="M247.084 101.867c-14.247 10.617-23.629 34.984 11.988 77.974 35.617 42.989 45.868 69.271 49.69 99.207 3.649 29.936 0 37.943 11.467 46.993 11.467 9.051 37.355 6.266 47.258 4.699 9.904-1.566 28.668-4.873 27.452-48.733-1.217-43.86-21.371-88.591-38.919-115.22-17.721-26.803-36.833-49.43-54.207-62.309-20.849-14.968-37.876-14.968-54.729-2.611z" fill="url(#r)"/><path d="M308.759 278.352l85.655-2.611s1.042 10.965.347 17.057c-.695 7.658-2.259 15.316-2.259 15.316s-6.254 1.044-32.663 2.089l-48.127 1.218s-.868-3.829-1.042-12.183c-.695-5.222-1.911-20.886-1.911-20.886z" fill="url(#s)"/><defs><linearGradient id="a" x1="263.394" y1="86.76" x2="253.06" y2="73.477" gradientUnits="userSpaceOnUse"><stop stop-color="#BC5A32" stop-opacity="0"/><stop offset=".99" stop-color="#BC5A32"/></linearGradient><linearGradient id="b" x1="247.262" y1="32.289" x2="250.979" y2="27.144" gradientUnits="userSpaceOnUse"><stop stop-color="#BC5A32" stop-opacity="0"/><stop offset=".99" stop-color="#BC5A32"/></linearGradient><linearGradient id="c" x1="274.005" y1="57.08" x2="273.417" y2="47.81" gradientUnits="userSpaceOnUse"><stop stop-color="#CC7A5E" stop-opacity="0"/><stop offset=".924" stop-color="#AA5F4B"/></linearGradient><linearGradient id="d" x1="259.881" y1="38.548" x2="260.874" y2="9.476" gradientUnits="userSpaceOnUse"><stop offset=".007" stop-color="#FF7A00"/><stop offset=".983" stop-color="#FFB600"/></linearGradient><linearGradient id="e" x1="41.692" y1="202.813" x2="43.808" y2="216.893" gradientUnits="userSpaceOnUse"><stop offset=".005" stop-color="#CC7A5E" stop-opacity="0"/><stop offset=".924" stop-color="#AA5F4B"/></linearGradient><linearGradient id="f" x1="55.536" y1="217.519" x2="60.273" y2="187.945" gradientUnits="userSpaceOnUse"><stop stop-color="#EBFFFF"/><stop offset="1" stop-color="#C2E4F9"/></linearGradient><linearGradient id="g" x1="177.258" y1="168.832" x2="125.99" y2="158.811" gradientUnits="userSpaceOnUse"><stop stop-color="#7BA1C8"/><stop offset="1" stop-color="#8FC3E5"/></linearGradient><linearGradient id="h" x1="102.176" y1="177.704" x2="101.947" y2="230.377" gradientUnits="userSpaceOnUse"><stop stop-color="#EBFFFF"/><stop offset="1" stop-color="#C2E4F9"/></linearGradient><linearGradient id="j" x1="249.329" y1="445.013" x2="117.192" y2="507.123" gradientUnits="userSpaceOnUse"><stop stop-color="#691E14"/><stop offset="1" stop-color="#933E1C"/></linearGradient><linearGradient id="k" x1="205.078" y1="491.766" x2="254.062" y2="499.306" gradientUnits="userSpaceOnUse"><stop stop-color="#86322A" stop-opacity="0"/><stop offset=".998" stop-color="#652325"/></linearGradient><linearGradient id="l" x1="280.077" y1="455.419" x2="212.264" y2="477.963" gradientUnits="userSpaceOnUse"><stop stop-color="#86322A" stop-opacity="0"/><stop offset=".998" stop-color="#652325"/></linearGradient><linearGradient id="m" x1="253.9" y1="329.124" x2="256.518" y2="272.299" gradientUnits="userSpaceOnUse"><stop stop-color="#86322A" stop-opacity="0"/><stop offset=".998" stop-color="#652325"/></linearGradient><linearGradient id="n" x1="281.653" y1="187.904" x2="229.389" y2="187.971" gradientUnits="userSpaceOnUse"><stop stop-color="#7BA1C8"/><stop offset="1" stop-color="#8FC3E5"/></linearGradient><linearGradient id="o" x1="283.22" y1="198.608" x2="255.462" y2="207.584" gradientUnits="userSpaceOnUse"><stop stop-color="#4479B2"/><stop offset="1" stop-color="#4479B2" stop-opacity="0"/></linearGradient><linearGradient id="p" x1="354.31" y1="347.679" x2="356.562" y2="347.401" gradientUnits="userSpaceOnUse"><stop offset=".005" stop-color="#CC7A5E" stop-opacity="0"/><stop offset=".924" stop-color="#AA5F4B"/></linearGradient><linearGradient id="q" x1="340.318" y1="332.127" x2="371.831" y2="332.12" gradientUnits="userSpaceOnUse"><stop stop-color="#EBFFFF"/><stop offset="1" stop-color="#C2E4F9"/></linearGradient><linearGradient id="r" x1="333.553" y1="156.372" x2="271.605" y2="240.03" gradientUnits="userSpaceOnUse"><stop stop-color="#B9E4FF"/><stop offset="1" stop-color="#84B4D7"/></linearGradient><linearGradient id="s" x1="387.672" y1="292.908" x2="316.787" y2="299.825" gradientUnits="userSpaceOnUse"><stop stop-color="#EBFFFF"/><stop offset="1" stop-color="#C2E4F9"/></linearGradient><clipPath id="i"><path fill="#fff" transform="matrix(-1 0 0 1 354.823 280.52)" d="M0 0h228.105v419.481H0z"/></clipPath></defs></svg>