<svg width="40" height="40" viewBox="0 0 40 40" fill="none" xmlns="http://www.w3.org/2000/svg">
<path d="M21.6667 11.6667H11.6667V15H21.6667V11.6667ZM21.6667 18.3333H11.6667V21.6667H21.6667V18.3333ZM21.6667 25H11.6667V28.3333H21.6667V25ZM28.3333 11.6667H25V15H28.3333V11.6667ZM28.3333 18.3333H25V21.6667H28.3333V18.3333ZM28.3333 25H25V28.3333H28.3333V25ZM6.5 5H33.5C34.3333 5 35 5.66667 35 6.5V33.5C35 34.1667 34.3333 35 33.5 35H6.5C5.83333 35 5 34.1667 5 33.5V6.5C5 5.66667 5.83333 5 6.5 5V5ZM8.33333 31.6667H31.6667V8.33333H8.33333V31.6667Z" fill="#29292A"/>
</svg>
