<svg width="40" height="40" viewBox="0 0 40 40" fill="none" xmlns="http://www.w3.org/2000/svg">
<path d="M19.9997 36.6668C10.7947 36.6668 3.33301 29.2052 3.33301 20.0002C3.33301 12.5368 8.23801 6.22016 14.9997 4.09683V7.63683C12.1345 8.80024 9.76267 10.923 8.28977 13.642C6.81687 16.361 6.33448 19.5073 6.9251 22.5427C7.51572 25.5781 9.14266 28.314 11.5276 30.2824C13.9126 32.2507 16.9074 33.3293 19.9997 33.3335C22.656 33.3334 25.2518 32.5402 27.4544 31.0556C29.6571 29.5709 31.3663 27.4624 32.363 25.0002H35.903C33.7797 31.7618 27.463 36.6668 19.9997 36.6668ZM36.583 21.6668H18.333V3.41683C18.8813 3.36183 19.438 3.3335 19.9997 3.3335C29.2047 3.3335 36.6663 10.7952 36.6663 20.0002C36.6663 20.5618 36.638 21.1185 36.583 21.6668ZM21.6663 6.77016V18.3335H33.2297C32.8587 15.3962 31.5211 12.6657 29.4276 10.5722C27.3341 8.47872 24.6037 7.14114 21.6663 6.77016Z" fill="#29292A"/>
</svg>
