<svg width="40" height="40" viewBox="0 0 40 40" fill="none" xmlns="http://www.w3.org/2000/svg">
<path d="M21.6673 35V38.3333H18.334V35H5.00065C4.55862 35 4.1347 34.8244 3.82214 34.5118C3.50958 34.1993 3.33398 33.7754 3.33398 33.3333V10H36.6673V33.3333C36.6673 33.7754 36.4917 34.1993 36.1792 34.5118C35.8666 34.8244 35.4427 35 35.0007 35H21.6673ZM6.66732 31.6667H33.334V13.3333H6.66732V31.6667ZM21.6673 16.6667H30.0007V20H21.6673V16.6667ZM21.6673 23.3333H30.0007V26.6667H21.6673V23.3333ZM15.0007 16.6667V21.6667H20.0007C20.0007 22.6556 19.7074 23.6223 19.158 24.4445C18.6086 25.2668 17.8277 25.9076 16.9141 26.2861C16.0004 26.6645 14.9951 26.7635 14.0252 26.5706C13.0553 26.3777 12.1644 25.9015 11.4651 25.2022C10.7659 24.5029 10.2897 23.612 10.0967 22.6421C9.9038 21.6722 10.0028 20.6669 10.3813 19.7532C10.7597 18.8396 11.4006 18.0587 12.2228 17.5093C13.045 16.9599 14.0117 16.6667 15.0007 16.6667ZM3.33398 5H36.6673V8.33333H3.33398V5Z" fill="#29292A"/>
</svg>
