<svg width="40" height="40" viewBox="0 0 40 40" fill="none" xmlns="http://www.w3.org/2000/svg">
<path d="M33.3333 3.3335C34.2533 3.3335 35 4.08016 35 5.00016V11.2618L31.6667 14.5952V6.66683H8.33333V33.3335H31.6667V28.7368L35 25.4035V35.0002C35 35.9202 34.2533 36.6668 33.3333 36.6668H6.66667C5.74667 36.6668 5 35.9202 5 35.0002V5.00016C5 4.08016 5.74667 3.3335 6.66667 3.3335H33.3333ZM36.2967 14.6802L38.6533 17.0368L25.69 30.0002L23.33 29.9968L23.3333 27.6435L36.2967 14.6802ZM21.6667 20.0002V23.3335H13.3333V20.0002H21.6667ZM26.6667 13.3335V16.6668H13.3333V13.3335H26.6667Z" fill="#29292A"/>
</svg>
