<svg width="202" height="456" viewBox="0 0 202 456" fill="none" xmlns="http://www.w3.org/2000/svg">
<g clip-path="url(#clip0_3135_49757)">
<path d="M8.09473 432.328L17.4179 390.76L48.457 398.688L38.2243 449.204L8.09473 432.328ZM95.4136 436.179L95.5273 393.705L127.59 394.724L128.613 446.146L95.4136 436.179Z" fill="#EA9D7D"/>
<path d="M95.3 425.646C95.0724 425.532 94.9585 425.419 94.9585 425.193L94.8447 405.71C94.8447 405.371 95.0724 405.257 95.3 405.257C95.5276 405.257 95.7553 405.484 95.7553 405.71L95.8691 425.193C95.8691 425.532 95.6415 425.646 95.3 425.646Z" fill="#CC7A5E"/>
<path d="M109.17 422.022C122.018 423.268 127.93 421.682 127.93 421.682L128.044 398.688L95.754 396.536L95.1855 418.171C95.1855 418.171 99.8471 421.002 109.17 422.022Z" fill="url(#paint0_linear_3135_49757)"/>
<path d="M94.3897 424.739L131.91 420.888C133.16 420.774 134.411 421.454 134.979 422.7L135.662 424.286C135.662 424.286 156.695 437.424 166.132 442.068C169.316 443.654 173.409 445.579 173.636 447.958C173.75 449.43 173.636 451.016 173.636 452.375C173.75 454.301 172.272 455.32 170.339 455.32L95.2993 455.433C93.2528 455.433 91.4336 454.414 91.0925 452.375C90.524 448.864 90.4103 443.427 90.7514 438.897L91.5473 427.91C91.5473 426.211 92.798 424.852 94.3897 424.739Z" fill="url(#paint1_linear_3135_49757)"/>
<path d="M95.2993 455.207L170.453 454.981C172.386 454.981 173.75 453.961 173.636 452.036C173.636 451.809 173.409 448.185 173.409 448.185L90.6377 448.524L90.9788 452.149C91.4336 454.301 93.2527 455.207 95.2993 455.207Z" fill="#351412"/>
<path d="M90.751 449.204V447.731H173.522V449.204H90.751Z" fill="#D3A094"/>
<path d="M131.455 432.328C131 433.007 131 434.027 131.682 434.48C132.364 434.933 133.387 434.933 133.842 434.253L139.868 426.891C139.868 426.891 139.982 426.891 139.982 426.778L137.367 425.192L131.455 432.328ZM138.731 436.179C138.276 436.859 138.39 437.878 139.072 438.331C139.755 438.784 140.778 438.671 141.233 437.991L146.463 430.742L143.848 429.156L138.731 436.179ZM146.463 439.577C146.008 440.257 146.235 441.276 146.917 441.729C147.6 442.182 148.623 441.956 149.078 441.276L153.171 434.933L150.556 433.347L146.463 439.577Z" fill="#4C2215"/>
<path d="M6.04695 424.739L43.5668 420.888C44.8174 420.774 46.0681 421.454 46.6366 422.7L47.3188 424.286C47.3188 424.286 68.3526 437.424 77.7894 442.068C80.9729 443.654 85.066 445.579 85.2934 447.958C85.4071 449.43 85.2934 451.016 85.2934 452.375C85.4071 454.301 83.9291 455.32 81.9962 455.32L6.95652 455.433C4.90999 455.433 3.09083 454.414 2.74974 452.375C2.18126 448.864 2.06757 443.427 2.40866 438.897L3.20454 427.91C3.20454 426.211 4.4552 424.852 6.04695 424.739Z" fill="url(#paint2_linear_3135_49757)"/>
<path d="M7.07172 455.207L82.2252 454.981C84.158 454.981 85.5223 453.961 85.4086 452.036C85.4086 451.809 85.1813 448.185 85.1813 448.185L2.41016 448.524L2.75125 452.149C3.09234 454.301 4.91149 455.207 7.07172 455.207Z" fill="#351412"/>
<path d="M2.41016 449.204V447.731H85.295V449.204H2.41016Z" fill="#D3A094"/>
<path d="M43.1129 432.328C42.6581 433.007 42.6581 434.027 43.3402 434.48C44.0224 434.933 45.0457 434.933 45.5005 434.253L51.5264 426.891C51.5264 426.891 51.6401 426.891 51.6401 426.778L49.0251 425.192L43.1129 432.328ZM50.3894 436.179C49.9347 436.859 50.0483 437.878 50.7305 438.331C51.4127 438.784 52.436 438.671 52.8908 437.991L58.1208 430.742L55.5058 429.156L50.3894 436.179ZM58.2345 439.577C57.7797 440.257 58.0071 441.276 58.6893 441.729C59.3715 442.182 60.3947 441.956 60.8495 441.276L64.9426 434.933L62.3276 433.347L58.2345 439.577Z" fill="#4C2215"/>
<path d="M9.57312 424.173C9.45341 424.049 9.37418 423.891 9.3457 423.72L13.553 404.691C13.6667 404.465 13.8941 404.238 14.1216 404.351C14.349 404.351 14.5764 404.691 14.4627 404.918L10.2554 423.947C10.1417 424.173 9.91426 424.4 9.68684 424.287C9.68684 424.287 9.68683 424.173 9.57312 424.173Z" fill="#CC7A5E"/>
<path d="M24.5798 421.341C36.859 425.305 42.9986 425.079 42.9986 425.079L48.2287 402.652L17.1895 393.591L11.9595 414.545C11.8458 414.658 15.7114 418.509 24.5798 421.341Z" fill="url(#paint3_linear_3135_49757)"/>
<path d="M126.793 182.693H62.668L88.5908 406.729C88.8182 408.767 90.6373 410.24 92.6839 410.127L128.612 408.541C130.545 408.428 132.023 406.955 132.137 405.03L134.979 322.687C135.775 302.866 134.524 295.051 134.524 273.304C134.411 255.068 128.612 199.229 126.793 182.693Z" fill="#341311"/>
<path d="M41.6346 182.693C40.2703 190.508 37.9963 207.611 34.8128 228.565L22.3062 314.645L5.93392 404.463C5.59283 406.502 7.07088 408.314 9.00372 408.428L47.4331 411.146C49.1386 411.259 50.6166 410.24 51.1851 408.654L85.0667 306.603C93.2528 282.592 117.015 200.135 121.904 182.693H41.6346Z" fill="#441B18"/>
<path d="M50.9583 408.656L100.189 262.206C100.189 262.206 71.9922 271.606 62.5554 284.519C54.2555 295.958 16.1672 383.058 7.18517 403.672C6.2756 405.824 7.75365 408.203 10.0276 408.429L47.0926 411.034C48.9118 411.147 50.5036 410.128 50.9583 408.656Z" fill="url(#paint4_linear_3135_49757)"/>
<path d="M97.5729 223.128L130.431 219.391L126.566 182.92L41.7479 182.354L33.2207 238.079C33.2207 238.079 76.5391 225.28 97.5729 223.128Z" fill="url(#paint5_linear_3135_49757)"/>
<path d="M63.6912 182.693L38.2232 293.012L13.21 408.314L14.688 408.654C14.9154 407.748 33.789 318.27 39.7013 293.352L65.283 182.693H63.6912Z" fill="#772E1F"/>
</g>
<g clip-path="url(#clip1_3135_49757)">
<path d="M77.2239 38.5098L68.6966 66.2594L66.1953 72.7154C66.1953 72.7154 69.8336 77.3592 78.4745 79.1715C84.3868 80.4174 88.3661 80.5306 90.9812 80.3041C93.1414 80.0776 95.7564 79.6245 94.3921 75.6603C92.4592 69.7706 93.1414 66.0329 93.1414 66.0329L96.2112 49.3831L77.2239 38.5098Z" fill="#EA9D7D"/>
<path d="M75.8587 53.4613C78.7012 57.7655 83.7038 61.3901 86.5462 62.7493C90.5256 64.6749 93.368 65.128 93.368 65.128L95.8693 51.3092L77.1094 38.5098L76.0861 40.4353L75.2903 43.6069C75.2903 43.6069 73.2437 49.4969 75.8587 53.4613Z" fill="url(#paint6_linear_3135_49757)"/>
<path d="M104.852 11.3269C104.852 11.3269 108.149 16.6503 108.717 19.1421C109.286 21.2941 109.4 23.4461 109.4 24.692C109.4 29.4491 109.059 36.1317 108.49 39.8694C107.353 46.3254 104.283 50.1764 100.645 51.309C97.0067 52.4417 90.4123 50.0631 85.9781 47.7979C82.2262 45.8724 80.0659 43.8336 79.4974 41.4551C78.929 38.9633 77.792 35.7919 77.792 35.7919L78.0194 28.4297L86.774 9.85449L104.852 11.3269Z" fill="#EA9D7D"/>
<path d="M82.2264 31.8288C82.2264 31.8288 88.8208 24.4663 93.0275 22.8805C101.1 19.5957 108.945 19.9355 108.945 19.9355L107.694 15.9711L87.5701 14.9517L79.6113 27.1847L82.2264 31.8288Z" fill="url(#paint7_linear_3135_49757)"/>
<path d="M75.2906 41.002C78.6186 41.002 81.3165 38.1114 81.3165 34.5457C81.3165 30.98 78.6186 28.0894 75.2906 28.0894C71.9625 28.0894 69.2646 30.98 69.2646 34.5457C69.2646 38.1114 71.9625 41.002 75.2906 41.002Z" fill="#EA9D7D"/>
<path d="M66.8778 72.9419H66.764C66.6596 72.8889 66.5723 72.8077 66.512 72.7075C66.4517 72.6074 66.4208 72.4924 66.423 72.3756L71.7667 56.0656C72.79 52.6677 75.8598 41.2281 75.8598 41.2281C75.913 41.1241 75.9946 41.037 76.0951 40.977C76.1956 40.9169 76.3111 40.8862 76.4283 40.8883C76.5327 40.9413 76.62 41.0226 76.6803 41.1227C76.7406 41.2228 76.7715 41.3379 76.7694 41.4546L72.6763 56.2922C71.7667 59.3503 67.3325 72.4889 67.3325 72.4889C67.2188 72.8287 67.1051 72.9419 66.8778 72.9419Z" fill="#CF7653"/>
<path d="M75.2907 41.4551C71.6524 41.4551 68.6963 38.2835 68.6963 34.5456C68.6963 30.8078 71.6524 27.6362 75.2907 27.6362C78.929 27.6362 81.8851 30.8078 81.8851 34.5456C81.8851 38.2835 78.929 41.4551 75.2907 41.4551ZM75.2907 28.5424C72.2209 28.5424 69.7196 31.2608 69.7196 34.5456C69.7196 37.8304 72.2209 40.5489 75.2907 40.5489C78.3605 40.5489 80.8618 37.8304 80.8618 34.5456C80.8618 31.2608 78.3605 28.5424 75.2907 28.5424Z" fill="#B76349"/>
<path d="M75.6334 37.3773C77.1406 37.3773 78.3624 36.1095 78.3624 34.5456C78.3624 32.9817 77.1406 31.7139 75.6334 31.7139C74.1262 31.7139 72.9043 32.9817 72.9043 34.5456C72.9043 36.1095 74.1262 37.3773 75.6334 37.3773Z" fill="url(#paint8_linear_3135_49757)"/>
<path d="M81.8863 30.4678L79.9525 32.1668L79.1562 38.5099L79.4975 40.3222C79.4975 40.3222 82.2276 38.8497 82.4551 35.9047C82.6826 33.073 81.8863 30.4678 81.8863 30.4678Z" fill="#EA9D7D"/>
<path d="M96.8931 51.7623C95.6425 51.7623 94.6192 51.5358 92.3453 50.9694C88.707 50.0633 83.5906 47.2316 80.9756 44.7396C78.4743 42.2477 78.7017 39.8691 78.7017 39.7558C78.7017 39.5293 78.7017 39.1895 78.9291 39.1895C79.1565 39.1895 79.2702 39.416 79.3839 39.6425C79.4976 40.0956 79.4975 42.0212 81.5441 44.06C83.9317 46.4387 89.0481 49.1571 92.459 50.0633C95.9835 50.8562 96.6657 51.0827 99.2807 50.8562C101.782 50.6296 103.26 49.6102 103.26 49.6102C103.601 49.3837 103.942 49.2704 103.715 49.6102C103.488 49.8367 101.668 51.3092 99.3944 51.649C98.2575 51.7623 97.5753 51.7623 96.8931 51.7623Z" fill="#B76349"/>
<path d="M90.9808 26.6182C90.8672 26.6182 90.6398 26.6182 90.5261 26.505C90.358 26.3748 90.2426 26.1887 90.2008 25.9808C90.1591 25.7728 90.1938 25.5568 90.2987 25.3723C90.4124 25.259 92.2315 22.5406 96.3246 22.8804C96.7794 22.8804 97.1205 23.3334 97.1205 23.7865C97.1205 24.2396 96.6657 24.5794 96.2109 24.5794C93.1411 24.3529 91.7767 26.2784 91.7767 26.3917C91.4356 26.505 91.2082 26.6182 90.9808 26.6182ZM107.808 24.2396C107.694 24.2396 107.467 24.2396 107.353 24.1263C106.444 23.4467 105.079 23.8998 104.966 23.8998C104.511 24.0131 104.056 23.7865 103.942 23.3334C103.829 22.8804 104.056 22.4273 104.511 22.314C104.624 22.314 106.671 21.6344 108.263 22.7671C108.431 22.8973 108.546 23.0833 108.588 23.2913C108.63 23.4992 108.595 23.7152 108.49 23.8998C108.376 24.1263 108.035 24.2396 107.808 24.2396Z" fill="#B4603F"/>
<path d="M95.1882 32.0529C96.0678 32.0529 96.7808 31.3429 96.7808 30.4671C96.7808 29.5913 96.0678 28.8813 95.1882 28.8813C94.3087 28.8813 93.5957 29.5913 93.5957 30.4671C93.5957 31.3429 94.3087 32.0529 95.1882 32.0529Z" fill="#4F2B23"/>
<path d="M106.899 31.1476C107.779 31.1476 108.492 30.4376 108.492 29.5618C108.492 28.686 107.779 27.9761 106.899 27.9761C106.02 27.9761 105.307 28.686 105.307 29.5618C105.307 30.4376 106.02 31.1476 106.899 31.1476Z" fill="#4F2B23"/>
<path d="M101.669 40.0957C101.328 40.0957 100.986 39.8692 100.873 39.4161C100.759 38.963 101.1 38.5099 101.555 38.5099C101.555 38.5099 102.806 38.2834 102.92 37.264C103.034 36.2445 102.01 33.4128 101.441 31.9403C101.214 31.4872 101.441 31.0342 101.896 30.9209C102.351 30.6944 102.806 30.9209 102.92 31.374C103.148 31.8271 104.626 35.6782 104.513 37.4905C104.399 39.1895 102.806 40.0957 101.896 40.209C101.783 40.0957 101.669 40.0957 101.669 40.0957Z" fill="#B4603F"/>
<path d="M88.0256 16.9891C88.0256 16.9891 87.7982 21.0666 85.5243 24.6911C83.2503 28.3155 82.9092 28.3155 83.1366 29.5614C83.364 30.8073 86.7749 37.6031 94.62 40.4347C100.532 42.5868 105.649 41.5674 108.15 40.4347L108.491 38.6225C108.491 38.6225 109.514 39.0756 109.514 40.548C109.628 42.3602 109.401 45.4184 109.173 47.3438C108.718 51.0815 106.444 54.0264 101.669 54.4795C98.0309 54.8192 91.6639 53.2336 85.7517 49.8356C82.7955 48.1367 79.7257 44.0592 79.3847 42.4735C78.7025 38.9623 79.7257 31.4869 79.7257 31.4869C79.7257 31.4869 79.271 27.5227 74.2683 27.8625C70.63 28.089 69.2656 31.7134 69.2656 31.7134C69.2656 31.7134 66.7643 21.8595 65.9685 19.5942C64.7178 15.7432 66.7643 13.478 68.5835 12.0055C70.4026 10.6464 72.2218 10.7596 72.2218 10.7596C72.2218 10.7596 71.4259 5.09645 77.6792 2.15159C80.749 0.679164 83.2503 1.01895 85.7517 0.905689C88.253 0.792425 90.6406 0.452637 92.6871 0.452637C97.6898 0.679164 99.1679 3.51076 99.1679 3.51076C99.1679 3.51076 108.946 -0.680003 112.925 4.53013C116.905 9.627 112.47 15.7432 106.899 17.3289C103.034 18.5748 97.0076 19.0279 88.0256 16.9891Z" fill="#B23031"/>
<path d="M97.3488 45.872C93.0278 45.6454 91.2084 42.5872 90.7536 40.8881C90.6399 40.4351 90.8673 39.982 91.3221 39.8687C91.777 39.7554 92.2318 39.982 92.3455 40.4351C92.3455 40.5483 93.2552 43.9464 97.3488 44.1729C97.8037 44.1729 98.1448 44.626 98.1448 44.9658C98.1448 45.5322 97.8037 45.872 97.3488 45.872Z" fill="#EA9D7D"/>
</g>
<path d="M82.793 101.937C82.793 101.937 86.4312 119.72 87.6819 138.182C88.9326 156.644 94.7311 156.87 100.075 161.967C106.442 167.857 112.923 173.747 128.954 176.692C144.985 179.636 178.298 183.601 178.298 183.601C178.298 183.601 184.551 185.979 193.306 185.639C198.536 185.413 195.353 182.921 196.603 182.695C197.854 182.355 198.65 179.976 199.104 178.391C199.446 176.918 199.787 175.899 199.787 175.899C199.787 175.899 201.265 174.086 201.265 173.067C201.151 172.048 198.422 171.142 196.035 171.028C193.647 170.915 193.533 171.028 192.396 170.689C191.259 170.349 195.011 170.009 196.944 169.669C198.877 169.329 200.014 167.177 196.489 167.064C192.965 166.951 190.009 166.385 188.985 166.498C187.271 166.702 185.565 166.967 183.869 167.291L182.164 167.63C182.164 167.63 180.799 168.084 177.388 166.724C173.978 165.365 140.096 150.414 135.093 147.923C128.726 144.638 115.879 139.315 115.879 133.425C115.879 127.422 97.6872 101.598 97.6872 101.598L82.793 101.937Z" fill="#EA9D7D"/>
<path d="M128.499 142.373C129.522 143.958 133.842 147.356 138.845 149.508L176.592 166.045L182.505 168.083C182.505 168.083 181.936 167.404 184.779 166.724C187.621 165.931 195.352 166.611 197.058 166.611C198.763 166.724 198.763 167.177 198.763 167.63C198.877 168.083 198.195 168.65 197.513 168.876C196.83 169.103 191.146 170.235 191.146 170.235C191.146 170.235 190.236 173.633 187.166 174.086C184.096 174.653 180.686 173.52 180.686 173.52C180.686 173.52 134.07 170.915 121.108 158.003C109.17 146.11 127.475 140.787 128.499 142.373Z" fill="url(#paint9_linear_3135_49757)"/>
<path d="M182.05 173.973C182.05 173.973 179.208 177.145 181.595 179.977C183.756 182.582 187.167 182.469 188.986 182.129C191.828 181.449 195.353 175.899 194.898 173.294C194.329 170.349 191.487 170.575 191.487 170.575C191.487 170.575 189.782 173.747 187.28 174.426C184.779 174.88 182.05 173.973 182.05 173.973Z" fill="url(#paint10_linear_3135_49757)"/>
<path d="M191.374 170.916C191.146 170.916 190.919 170.689 190.919 170.463C190.919 170.236 191.033 170.009 191.374 169.896C196.263 169.33 198.309 168.197 198.536 167.857C198.536 167.631 198.309 167.404 197.4 167.291C195.808 167.064 189.896 166.951 187.963 166.838C184.665 166.725 182.505 168.197 182.505 168.197C182.392 168.31 182.278 168.31 182.164 168.31L176.593 167.178C176.366 167.178 176.138 166.838 176.252 166.611C176.366 166.385 176.593 166.158 176.82 166.272L182.278 167.291C182.846 166.951 185.007 165.818 188.076 165.932L197.627 166.385C199.219 166.611 199.446 167.291 199.673 167.744C199.673 167.857 199.673 168.197 199.56 168.424C198.878 169.33 195.808 170.349 191.715 170.802L191.374 170.916Z" fill="#CC7A5E"/>
<path d="M185.234 175.106C183.642 175.106 182.164 174.653 182.05 174.653C181.946 174.6 181.858 174.519 181.798 174.419C181.738 174.319 181.707 174.204 181.709 174.087C181.709 173.86 182.05 173.747 182.278 173.747C182.278 173.747 185.688 174.767 187.735 173.634C189.895 172.501 190.805 170.349 190.805 170.236C190.919 170.009 191.146 169.896 191.373 170.009C191.601 170.123 191.714 170.349 191.601 170.576C191.601 170.689 190.577 173.068 188.076 174.427C187.28 174.88 186.257 175.106 185.234 175.106Z" fill="#CC7A5E"/>
<path d="M185.007 183.941C184.893 183.941 184.779 183.941 184.779 183.828C184.552 183.715 184.552 183.375 184.666 183.149C184.779 183.035 187.622 179.071 185.348 174.653C185.234 174.427 185.348 174.087 185.575 173.974C185.803 173.86 186.144 173.974 186.257 174.2C188.759 179.184 185.689 183.488 185.462 183.715C185.234 183.941 185.12 183.941 185.007 183.941ZM177.048 183.715C176.934 183.715 176.934 183.715 177.048 183.715C176.48 183.602 130.66 177.598 115.879 174.993C93.8222 171.029 90.7523 159.249 90.6386 158.682C90.5249 158.456 90.7523 158.229 90.9797 158.116C91.2071 158.003 91.4345 158.229 91.5482 158.456C91.5482 158.456 92.3441 161.401 95.755 164.799C101.44 170.462 109.967 172.954 116.107 174.087C130.887 176.805 176.707 182.809 177.162 182.809C177.389 182.809 177.617 183.035 177.617 183.375C177.503 183.488 177.275 183.715 177.048 183.715Z" fill="#CC7A5E"/>
<path d="M173.978 167.744C171.136 178.731 172.386 182.922 172.386 182.922L158.856 181.563L164.769 161.288C164.769 161.288 170.112 163.78 171.818 164.233C172.841 164.686 174.66 164.912 173.978 167.744Z" fill="url(#paint11_linear_3135_49757)"/>
<path d="M166.247 158.796L158.857 186.546C158.629 187.452 157.72 188.131 156.696 187.905C149.306 186.772 119.518 181.562 100.758 169.33C79.1553 155.398 111.673 84.1553 111.673 84.1553C111.673 84.1553 115.425 120.286 126.794 134.218C137.027 146.677 158.629 154.379 164.996 156.418C166.02 156.757 166.588 157.89 166.247 158.796Z" fill="#642C1E"/>
<path d="M150.215 150.754L145.667 185.979C145.667 185.979 119.403 180.995 107.579 171.821C87.1134 155.851 117.925 116.662 117.925 116.662C117.925 116.662 120.654 126.969 129.181 136.596C136.912 145.317 150.215 150.754 150.215 150.754Z" fill="url(#paint12_linear_3135_49757)"/>
<path d="M192.283 172.728C191.828 174.766 195.467 175.672 197.4 175.786C199.333 175.899 201.266 175.786 201.38 173.86C201.494 171.935 197.969 171.708 196.945 171.595C195.808 171.595 192.738 170.802 192.283 172.728Z" fill="#EA9D7D"/>
<path d="M198.309 176.352H197.4C195.921 176.239 193.192 175.673 192.169 174.313C191.828 173.86 191.714 173.294 191.828 172.614C192.283 170.576 195.125 171.029 197.058 171.142C198.309 171.255 201.834 171.595 201.721 173.974C201.721 174.653 201.379 175.22 200.925 175.673C200.356 176.126 199.333 176.352 198.309 176.352ZM194.671 171.935C193.761 171.935 192.965 172.161 192.737 172.841C192.624 173.181 192.737 173.407 192.965 173.747C193.761 174.767 196.035 175.22 197.4 175.333C198.423 175.446 199.788 175.446 200.356 174.88C200.584 174.653 200.811 174.313 200.811 173.86C200.811 172.841 199.56 172.161 196.831 172.048C196.604 172.048 195.239 171.935 194.671 171.935Z" fill="#CC7A5E"/>
<path d="M190.918 177.031C190.577 178.617 193.988 179.637 196.149 179.863C198.31 180.09 200.356 180.203 200.47 178.051C200.584 175.899 198.537 175.785 196.49 175.672C194.443 175.559 191.373 175.332 190.918 177.031Z" fill="#EA9D7D"/>
<path d="M197.968 180.543C197.399 180.543 196.831 180.543 196.262 180.43C194.67 180.316 191.828 179.637 190.918 178.278C190.577 177.824 190.577 177.371 190.691 177.032C191.146 174.766 195.125 175.106 196.717 175.333H196.944C198.877 175.559 201.265 175.672 201.151 178.278C201.151 179.07 200.81 179.637 200.355 179.977C199.673 180.43 198.877 180.543 197.968 180.543ZM191.373 177.258C191.356 177.454 191.395 177.651 191.487 177.824C192.055 178.731 194.329 179.41 196.148 179.524C197.513 179.637 198.877 179.75 199.559 179.184C199.787 178.957 200.014 178.617 200.014 178.164C200.128 176.692 198.991 176.465 196.603 176.239H196.49C195.353 176.125 191.714 175.786 191.373 177.258Z" fill="#CC7A5E"/>
<path d="M190.578 180.543C190.35 182.015 192.397 182.921 194.899 183.148C197.401 183.374 198.424 182.921 198.538 181.449C198.651 180.429 196.491 179.637 194.785 179.637C193.193 179.637 190.692 179.297 190.578 180.543Z" fill="#EA9D7D"/>
<path d="M196.036 183.714H194.899C193.648 183.601 191.488 183.261 190.578 182.129C190.237 181.675 190.123 181.222 190.123 180.656C190.35 179.184 192.397 179.184 193.989 179.297H194.899C196.15 179.297 197.855 179.75 198.651 180.543C198.993 180.883 199.106 181.336 198.992 181.562C198.765 183.374 197.514 183.714 196.036 183.714ZM191.033 180.656C191.033 180.883 191.033 181.222 191.26 181.449C191.829 182.129 193.193 182.582 195.013 182.695C197.742 182.921 197.969 182.355 198.083 181.449C198.083 181.449 198.083 181.336 197.969 181.109C197.514 180.543 196.15 180.203 194.899 180.203H193.989C192.738 180.09 191.146 179.976 191.033 180.656Z" fill="#CC7A5E"/>
<path d="M190.123 183.94C189.896 185.186 191.601 185.866 193.648 185.979C195.695 186.092 196.491 185.866 196.604 184.62C196.718 183.714 194.899 183.147 193.648 183.147C192.397 183.147 190.237 182.808 190.123 183.94Z" fill="#EA9D7D"/>
<path d="M194.557 186.546H193.648C192.624 186.432 190.805 186.206 190.009 185.186C189.668 184.846 189.554 184.393 189.668 183.94C189.895 182.694 191.487 182.694 192.965 182.808H193.648C194.671 182.808 196.149 183.147 196.831 183.827C197.173 184.167 197.173 184.507 197.173 184.733C196.945 186.206 195.808 186.546 194.557 186.546ZM190.577 183.94C190.56 184.136 190.599 184.333 190.691 184.507C191.146 185.073 192.169 185.413 193.648 185.526C195.808 185.639 196.036 185.3 196.036 184.507C196.036 184.507 196.036 184.393 195.922 184.28C195.581 183.827 194.444 183.487 193.534 183.487H192.852C191.942 183.601 190.691 183.487 190.577 183.94Z" fill="#CC7A5E"/>
<path d="M97.4598 54.2534L95.6406 63.541L103.372 65.3533L104.509 70.1103C104.509 70.1103 112.127 82.4561 114.969 104.656L122.814 168.084C124.861 183.148 125.998 201.27 131.796 216.221C137.595 231.171 140.778 230.152 144.075 230.492C147.259 230.832 148.964 231.171 146.918 222.903L110.308 56.2922L97.4598 54.2534Z" fill="#763829"/>
<path d="M97.46 54.2534L95.2998 65.8063C95.2998 65.8063 103.6 65.8063 106.442 70.3369C109.284 74.8674 111.786 86.8734 113.832 92.3101C115.765 97.6334 115.765 101.598 115.765 101.598L120.313 102.277L110.308 56.1789L97.46 54.2534Z" fill="url(#paint13_linear_3135_49757)"/>
<path d="M80.8604 184.847H124.975C124.975 184.847 119.858 123.798 115.651 97.4077C111.445 71.0172 103.486 65.354 103.486 65.354L85.4082 65.8071L80.8604 184.847Z" fill="#FFFBDC"/>
<path d="M63.0104 51.7607L107.579 62.181L100.985 165.478C98.0289 197.984 96.7783 218.372 89.0469 231.85C81.3155 245.329 56.9845 247.82 45.0463 247.82C33.1082 247.82 18.3276 247.254 14.6894 244.762C11.0511 242.27 63.0104 51.7607 63.0104 51.7607Z" fill="#7A3A2B"/>
<path d="M30.7197 200.25C30.7197 200.25 31.8567 204.328 33.9032 206.367L35.8361 208.405C35.8361 208.405 46.1824 200.59 52.4358 193.681C58.8028 186.772 60.7356 186.772 59.1439 184.28C57.5521 181.788 54.3686 178.164 54.3686 178.164C54.3686 178.164 42.999 194.474 30.7197 200.25Z" fill="#672E21"/>
<path d="M93.7087 130.707C96.0952 130.707 98.0298 128.679 98.0298 126.176C98.0298 123.674 96.0952 121.646 93.7087 121.646C91.3223 121.646 89.3877 123.674 89.3877 126.176C89.3877 128.679 91.3223 130.707 93.7087 130.707Z" fill="#331010"/>
<path d="M88.9343 170.462C91.3208 170.462 93.2553 168.434 93.2553 165.932C93.2553 163.429 91.3208 161.401 88.9343 161.401C86.5479 161.401 84.6133 163.429 84.6133 165.932C84.6133 168.434 86.5479 170.462 88.9343 170.462Z" fill="#331010"/>
<path d="M82.2253 212.144C84.6118 212.144 86.5463 210.115 86.5463 207.613C86.5463 205.111 84.6118 203.082 82.2253 203.082C79.8389 203.082 77.9043 205.111 77.9043 207.613C77.9043 210.115 79.8389 212.144 82.2253 212.144Z" fill="#331010"/>
<path d="M92.1164 76.9072C92.1164 76.9072 97.0053 88.4601 97.3464 95.9355C97.9149 107.828 89.0466 126.177 84.7261 153.247C80.9741 176.579 66.762 210.332 57.5526 217.807C35.7229 235.137 14.8027 242.272 14.8027 242.272L24.2395 200.705C29.3559 179.298 38.5653 153.134 39.4749 147.471C43.6816 121.533 92.1164 76.9072 92.1164 76.9072Z" fill="url(#paint14_linear_3135_49757)"/>
<path d="M91.2068 262.546L27.7642 289.389C26.1724 290.069 24.2396 289.276 23.5574 287.577L5.36595 244.537C4.68377 242.838 5.36594 240.912 6.95769 240.233L70.4003 213.389C71.9921 212.71 73.9249 213.502 74.6071 215.201L92.7985 258.242C93.5944 259.941 92.7986 261.866 91.2068 262.546Z" fill="url(#paint15_linear_3135_49757)"/>
<path d="M21.5588 265.536L19.4732 260.334L23.4268 258.758L23.835 259.776L21.027 260.895L21.4501 261.951L23.9211 260.965L24.3293 261.984L21.8583 262.969L22.2963 264.061L25.1417 262.927L25.5499 263.945L21.5588 265.536Z" fill="white"/>
<path d="M28.6941 262.777C27.8355 263.12 26.9829 263.138 26.1365 262.832L26.4931 261.75C27.1761 261.966 27.7822 261.969 28.3113 261.758C28.5459 261.664 28.7128 261.546 28.8118 261.403C28.9108 261.26 28.9286 261.11 28.865 260.951C28.8054 260.802 28.6878 260.711 28.5123 260.678C28.3348 260.64 28.012 260.65 27.544 260.711C27.2147 260.756 26.9438 260.78 26.7313 260.785C26.5168 260.784 26.3008 260.758 26.0834 260.707C25.871 260.654 25.6891 260.554 25.5378 260.407C25.3894 260.254 25.2645 260.051 25.1632 259.798C24.9745 259.327 24.9923 258.881 25.2165 258.458C25.4458 258.033 25.83 257.714 26.3691 257.499C27.1129 257.202 27.8502 257.164 28.5811 257.384L28.3277 258.485C27.6965 258.34 27.1737 258.35 26.7593 258.515C26.5447 258.601 26.3953 258.712 26.3113 258.849C26.2302 258.979 26.2175 259.113 26.2731 259.252C26.3407 259.421 26.4637 259.518 26.6422 259.545C26.8208 259.571 27.166 259.551 27.6779 259.485C28.3066 259.407 28.8024 259.43 29.1653 259.556C29.5282 259.681 29.7971 259.962 29.9719 260.398C30.1745 260.903 30.1562 261.37 29.917 261.799C29.6808 262.22 29.2731 262.547 28.6941 262.777Z" fill="white"/>
<path d="M33.6352 260.808C32.7766 261.15 31.9241 261.168 31.0776 260.862L31.4342 259.78C32.1172 259.996 32.7233 259.999 33.2525 259.788C33.4871 259.694 33.6539 259.576 33.7529 259.433C33.852 259.29 33.8697 259.14 33.8061 258.981C33.7465 258.833 33.629 258.742 33.4535 258.708C33.2759 258.67 32.9532 258.681 32.4852 258.741C32.1559 258.786 31.8849 258.811 31.6724 258.815C31.4579 258.814 31.242 258.788 31.0246 258.737C30.8122 258.684 30.6303 258.584 30.4789 258.437C30.3305 258.284 30.2057 258.081 30.1044 257.828C29.9157 257.358 29.9335 256.911 30.1577 256.488C30.3869 256.064 30.7711 255.744 31.3102 255.529C32.054 255.232 32.7914 255.194 33.5223 255.414L33.2689 256.515C32.6376 256.37 32.1148 256.38 31.7005 256.546C31.4858 256.631 31.3365 256.742 31.2524 256.879C31.1714 257.009 31.1587 257.144 31.2143 257.282C31.2818 257.451 31.4049 257.548 31.5834 257.575C31.7619 257.601 32.1072 257.581 32.6191 257.515C33.2477 257.437 33.7435 257.461 34.1065 257.586C34.4694 257.711 34.7383 257.992 34.9131 258.428C35.1157 258.933 35.0974 259.4 34.8581 259.829C34.6219 260.25 34.2143 260.577 33.6352 260.808Z" fill="white"/>
<path d="M36.1962 259.7L36.342 253.566L37.4053 253.142L41.7523 257.485L40.5467 257.966L39.5997 256.99L37.3833 257.874L37.3718 259.232L36.1962 259.7ZM37.3899 256.699L38.7827 256.144L37.4099 254.735L37.3899 256.699Z" fill="white"/>
<path d="M43.4347 256.815L42.6124 254.764L39.3348 252.416L40.6826 251.879L42.7703 253.468L43.206 250.873L44.5164 250.35L43.7566 254.282L44.5879 256.355L43.4347 256.815Z" fill="white"/>
<path d="M51.2437 253.713L49.5811 249.566L47.9861 250.202L47.563 249.147L51.9061 247.415L52.3292 248.47L50.7342 249.106L52.3968 253.253L51.2437 253.713Z" fill="white"/>
<path d="M55.1557 252.153L53.07 246.951L54.2232 246.491L56.3089 251.693L55.1557 252.153Z" fill="white"/>
<path d="M63.9401 248.651L61.8544 243.449L65.8081 241.873L66.2163 242.891L63.4082 244.01L63.8313 245.066L66.3024 244.08L66.7106 245.099L64.2396 246.084L64.6776 247.176L67.523 246.042L67.9312 247.06L63.9401 248.651Z" fill="white"/>
<path d="M69.1811 246.561L67.0954 241.36L69.4916 240.404C70.1555 240.14 70.7352 240.112 71.2307 240.323C71.6494 240.501 71.9601 240.842 72.1627 241.348C72.4825 242.145 72.3236 242.832 71.6861 243.408L73.7114 244.755L72.3636 245.293L70.558 244.082L69.6669 244.437L70.3343 246.102L69.1811 246.561ZM69.2616 243.426L70.4298 242.961C70.7093 242.849 70.8997 242.696 71.0008 242.5C71.0999 242.3 71.1038 242.086 71.0124 241.858C70.9151 241.615 70.7617 241.464 70.5523 241.404C70.3409 241.338 70.093 241.363 69.8084 241.476L68.6627 241.933L69.2616 243.426Z" fill="white"/>
<path d="M76.7114 243.646C75.8528 243.988 75.0002 244.006 74.1537 243.7L74.5104 242.618C75.1934 242.834 75.7995 242.837 76.3286 242.626C76.5633 242.532 76.7301 242.414 76.8291 242.271C76.9282 242.128 76.9459 241.978 76.8823 241.819C76.8227 241.67 76.7052 241.579 76.5296 241.546C76.3521 241.508 76.0293 241.518 75.5613 241.579C75.232 241.624 74.9611 241.648 74.7486 241.653C74.5341 241.652 74.3181 241.626 74.1007 241.575C73.8883 241.522 73.7064 241.422 73.555 241.275C73.4066 241.122 73.2818 240.919 73.1805 240.666C72.9918 240.195 73.0096 239.749 73.2338 239.326C73.463 238.901 73.8472 238.582 74.3864 238.367C75.1302 238.07 75.8675 238.032 76.5985 238.252L76.345 239.353C75.7138 239.208 75.191 239.218 74.7766 239.383C74.562 239.469 74.4126 239.58 74.3286 239.717C74.2475 239.847 74.2348 239.981 74.2904 240.12C74.358 240.289 74.481 240.386 74.6595 240.413C74.8381 240.439 75.1833 240.419 75.6952 240.353C76.3239 240.275 76.8197 240.298 77.1827 240.424C77.5456 240.549 77.8145 240.83 77.9893 241.266C78.1919 241.771 78.1736 242.238 77.9343 242.667C77.6981 243.088 77.2905 243.415 76.7114 243.646Z" fill="white"/>
<path d="M61.1272 249.587C60.4925 250.188 59.7859 250.482 59.0074 250.469C58.2328 250.452 57.5531 250.139 56.9684 249.53C56.4096 248.948 56.1404 248.261 56.1607 247.469C56.1772 246.673 56.4912 245.986 57.1025 245.407C57.4568 245.072 57.8011 244.834 58.1352 244.695C58.4656 244.551 58.8344 244.467 59.2416 244.442L59.3245 245.654C59.0162 245.674 58.7508 245.727 58.5283 245.812C58.3057 245.898 58.0835 246.046 57.8615 246.256C57.5345 246.566 57.3763 246.954 57.3871 247.423C57.3981 247.883 57.572 248.289 57.9088 248.639C58.264 249.009 58.6731 249.207 59.136 249.232C59.6027 249.254 60.0172 249.093 60.3793 248.75C60.7142 248.433 60.9187 248.085 60.9931 247.706L60.438 247.127L59.5327 247.985L58.7944 247.216L60.5699 245.535L62.2574 247.292C62.1581 248.203 61.7814 248.968 61.1272 249.587Z" fill="#F4BC2D"/>
<path d="M9.119 152.906C18.2147 130.593 42.4321 121.645 54.7113 116.662C66.9905 111.565 79.1561 111.905 79.1561 111.905C79.1561 111.905 57.5537 131.159 50.7319 141.92C43.9101 152.68 42.091 165.478 44.3649 177.145C46.1841 186.319 49.0265 195.267 50.1635 198.665C50.3908 199.458 50.0498 200.364 49.2539 200.703L18.3284 213.502C17.4188 213.842 16.2819 213.502 15.8271 212.483C12.6436 204.894 0.136976 174.653 9.119 152.906Z" fill="url(#paint16_linear_3135_49757)"/>
<path d="M49.3672 237.628C49.2535 237.628 49.2535 237.515 49.1398 237.401L44.8193 228.567C44.7056 228.34 44.8193 228 45.0467 228C45.2741 227.887 45.6152 228 45.6152 228.227L49.9356 236.948C50.2767 237.061 50.7315 237.288 51.1863 237.061C51.4137 236.948 51.5274 236.835 51.6411 236.495C51.8685 235.702 51.7548 235.476 50.5041 232.418L50.163 231.738C48.685 228.227 46.8658 220.978 46.7521 220.751C46.7521 220.525 46.7521 220.298 46.9795 220.185C47.2069 220.072 47.4343 220.072 47.548 220.298C48.2302 221.091 48.7987 221.771 49.3672 222.337L51.5274 221.431C50.3904 219.392 48.7987 216.901 48.1165 215.768L47.4343 214.748C46.8658 214.069 46.1837 213.389 45.6152 212.936C44.8193 212.257 44.1371 212.03 44.1371 212.03C44.0234 212.03 43.9097 211.917 43.9097 211.804L41.8632 206.48V206.254C41.8632 206.14 41.9769 205.914 42.2043 205.914C40.3851 197.872 35.4962 172.388 34.4729 161.854C33.9044 156.304 0.477648 158.003 7.07205 172.841C13.6664 187.678 27.7648 216.674 27.7648 216.674C27.7648 216.674 30.1524 224.602 35.951 231.285C41.6358 237.854 42.8865 238.194 43.796 238.987C44.7056 239.78 45.5015 237.968 45.5015 237.968C45.5015 237.968 47.2069 240.12 48.5713 239.553C49.4809 239.213 49.5946 238.421 49.4809 237.968C49.5946 237.741 49.4809 237.628 49.3672 237.628Z" fill="#EA9D7D"/>
<path d="M51.0723 231.964L50.7312 231.285C49.7079 228.906 48.571 224.829 47.8888 222.337C48.3436 222.45 48.571 222.79 48.7984 222.563L49.3668 222.337C48.7984 221.771 48.2299 221.091 47.5477 220.298C47.434 220.072 47.2066 220.072 46.9792 220.185C46.7518 220.298 46.6381 220.525 46.7518 220.751C46.8655 221.091 48.3436 228.34 49.9353 231.851L50.3901 232.87C51.6408 235.929 51.7545 235.702 51.5271 236.495C51.4134 236.835 51.2997 236.948 51.0723 237.061C50.6175 237.174 50.1627 237.061 49.8216 236.948L45.5012 228.227C45.3875 228 45.1601 227.887 44.9327 228C44.7053 228.113 44.5916 228.34 44.7053 228.566L49.0258 237.401L49.2532 237.627V237.741C49.7079 237.854 50.5038 238.307 51.0723 237.967C51.4134 237.854 51.9819 237.627 52.2093 236.948C52.7778 235.815 52.323 235.022 51.0723 231.964ZM52.323 221.091L48.9121 215.428C47.3203 212.823 45.2738 211.577 44.5916 211.237L42.545 206.14C42.4313 205.914 42.204 205.8 41.9766 205.914V206.933L44.0231 211.917C44.1368 212.03 44.1368 212.143 44.2505 212.143C44.2505 212.143 44.819 212.37 45.5012 212.936C46.4107 213.729 47.8888 215.541 48.1162 215.881L51.5271 221.544L52.323 221.091Z" fill="#CC7A5E"/>
<path d="M41.1803 230.832C41.1803 230.719 41.294 230.605 41.4076 230.492C41.635 230.379 41.8624 230.492 42.0898 230.605L46.1829 237.628C46.524 238.081 47.7747 239.327 48.7979 238.987C49.0253 238.873 49.2527 238.76 49.3664 238.647C49.4801 238.307 49.2527 237.628 49.2527 237.401C49.139 237.175 49.3664 236.948 49.5938 236.948C49.8212 236.835 50.1623 236.948 50.1623 237.175C50.276 237.288 50.6171 238.194 50.276 239.1C50.1623 239.44 49.8212 239.78 49.139 240.006C46.9788 240.799 45.7281 238.76 45.5007 238.307L41.4076 231.172C41.1803 230.945 41.1803 230.832 41.1803 230.832ZM31.4023 159.815C31.4023 159.589 31.6297 159.476 31.7434 159.362C31.9708 159.362 32.3119 159.476 32.3119 159.702C32.3119 160.042 37.9968 188.584 39.2474 193.795C40.4981 199.005 42.5446 206.367 42.5446 206.367C42.6583 206.593 42.5446 206.933 42.2035 206.933C41.9761 207.046 41.635 206.933 41.635 206.593C41.635 206.48 39.5885 199.118 38.3378 193.908C37.0872 188.811 31.516 160.155 31.4023 159.815C31.4023 159.929 31.4023 159.815 31.4023 159.815Z" fill="#CC7A5E"/>
<path d="M23.6709 207.5L28.7872 219.62L44.25 211.804L40.9528 201.043L23.6709 207.5Z" fill="url(#paint17_linear_3135_49757)"/>
<path d="M87.5674 66.8262C97.3453 77.5862 94.3892 98.4268 79.1538 112.018C61.9856 127.422 51.0708 140.221 46.9777 149.622C42.8846 159.023 43.7942 173.181 45.4997 180.996C46.864 187.226 49.3653 195.494 50.3886 198.665C50.616 199.458 50.2749 200.251 49.479 200.591L18.3262 213.39C17.4166 213.729 16.2796 213.39 15.9386 212.483C11.6181 203.536 -7.82401 159.476 4.34152 122.212C16.9618 83.3627 43.112 65.0139 55.9597 60.2569C72.5594 54.1406 80.973 59.6905 87.5674 66.8262Z" fill="#874130"/>
<defs>
<linearGradient id="paint0_linear_3135_49757" x1="110.923" y1="422.044" x2="111.788" y2="409.776" gradientUnits="userSpaceOnUse">
<stop stop-color="#CC7A5E" stop-opacity="0"/>
<stop offset="0.924" stop-color="#AA5F4B"/>
</linearGradient>
<linearGradient id="paint1_linear_3135_49757" x1="132.458" y1="412.847" x2="131.926" y2="467.09" gradientUnits="userSpaceOnUse">
<stop stop-color="#AF614E"/>
<stop offset="0.235" stop-color="#AD5F4C"/>
<stop offset="0.995" stop-color="#5A2A0E"/>
</linearGradient>
<linearGradient id="paint2_linear_3135_49757" x1="44.1148" y1="412.843" x2="43.5834" y2="467.085" gradientUnits="userSpaceOnUse">
<stop stop-color="#AF614E"/>
<stop offset="0.235" stop-color="#AD5F4C"/>
<stop offset="0.995" stop-color="#5A2A0E"/>
</linearGradient>
<linearGradient id="paint3_linear_3135_49757" x1="26.3398" y1="421.897" x2="29.8375" y2="410.102" gradientUnits="userSpaceOnUse">
<stop stop-color="#CC7A5E" stop-opacity="0"/>
<stop offset="0.924" stop-color="#AA5F4B"/>
</linearGradient>
<linearGradient id="paint4_linear_3135_49757" x1="33.6321" y1="316.562" x2="89.2626" y2="366.674" gradientUnits="userSpaceOnUse">
<stop stop-color="#341413" stop-opacity="0"/>
<stop offset="1" stop-color="#240F0E"/>
</linearGradient>
<linearGradient id="paint5_linear_3135_49757" x1="81.7532" y1="232.371" x2="82.7213" y2="183.378" gradientUnits="userSpaceOnUse">
<stop stop-color="#341413" stop-opacity="0"/>
<stop offset="1" stop-color="#240F0E"/>
</linearGradient>
<linearGradient id="paint6_linear_3135_49757" x1="80.7136" y1="57.6239" x2="88.489" y2="47.5735" gradientUnits="userSpaceOnUse">
<stop stop-color="#BC5A32" stop-opacity="0"/>
<stop offset="0.99" stop-color="#BC5A32"/>
</linearGradient>
<linearGradient id="paint7_linear_3135_49757" x1="94.5408" y1="23.6258" x2="91.1572" y2="15.7624" gradientUnits="userSpaceOnUse">
<stop stop-color="#BC5A32" stop-opacity="0"/>
<stop offset="0.99" stop-color="#BC5A32"/>
</linearGradient>
<linearGradient id="paint8_linear_3135_49757" x1="75.3934" y1="38.3231" x2="75.7737" y2="32.288" gradientUnits="userSpaceOnUse">
<stop stop-color="#CC7A5E" stop-opacity="0"/>
<stop offset="0.924" stop-color="#AA5F4B"/>
</linearGradient>
<linearGradient id="paint9_linear_3135_49757" x1="160.451" y1="154.043" x2="167.081" y2="142.565" gradientUnits="userSpaceOnUse">
<stop stop-color="#CC7A5E" stop-opacity="0"/>
<stop offset="0.924" stop-color="#AA5F4B"/>
</linearGradient>
<linearGradient id="paint10_linear_3135_49757" x1="188.383" y1="178.778" x2="186.121" y2="166.823" gradientUnits="userSpaceOnUse">
<stop stop-color="#CC7A5E" stop-opacity="0"/>
<stop offset="0.924" stop-color="#AA5F4B"/>
</linearGradient>
<linearGradient id="paint11_linear_3135_49757" x1="170.826" y1="173.265" x2="162.887" y2="171.632" gradientUnits="userSpaceOnUse">
<stop stop-color="#CC7A5E" stop-opacity="0"/>
<stop offset="0.924" stop-color="#AA5F4B"/>
</linearGradient>
<linearGradient id="paint12_linear_3135_49757" x1="148.822" y1="174.988" x2="128.023" y2="157.131" gradientUnits="userSpaceOnUse">
<stop stop-color="#552828" stop-opacity="0"/>
<stop offset="1" stop-color="#441814"/>
</linearGradient>
<linearGradient id="paint13_linear_3135_49757" x1="117.635" y1="97.7445" x2="102.046" y2="58.8176" gradientUnits="userSpaceOnUse">
<stop stop-color="#552828" stop-opacity="0"/>
<stop offset="1" stop-color="#441814"/>
</linearGradient>
<linearGradient id="paint14_linear_3135_49757" x1="59.2251" y1="162.527" x2="32.8938" y2="149.011" gradientUnits="userSpaceOnUse">
<stop stop-color="#552828" stop-opacity="0"/>
<stop offset="1" stop-color="#441814"/>
</linearGradient>
<linearGradient id="paint15_linear_3135_49757" x1="39.2259" y1="229.607" x2="60.8634" y2="277.791" gradientUnits="userSpaceOnUse">
<stop stop-color="#D4D7DB"/>
<stop offset="0.99" stop-color="#767E85"/>
</linearGradient>
<linearGradient id="paint16_linear_3135_49757" x1="32.3529" y1="143.632" x2="76.5913" y2="198.448" gradientUnits="userSpaceOnUse">
<stop stop-color="#552828" stop-opacity="0"/>
<stop offset="1" stop-color="#552828"/>
</linearGradient>
<linearGradient id="paint17_linear_3135_49757" x1="37.4975" y1="216.863" x2="33.346" y2="206.706" gradientUnits="userSpaceOnUse">
<stop stop-color="#CC7A5E" stop-opacity="0"/>
<stop offset="0.924" stop-color="#AA5F4B"/>
</linearGradient>
<clipPath id="clip0_3135_49757">
<rect width="173.338" height="274.551" fill="white" transform="translate(1.36426 181.448)"/>
</clipPath>
<clipPath id="clip1_3135_49757">
<rect width="50.0265" height="80.4173" fill="white" transform="translate(64.4893)"/>
</clipPath>
</defs>
</svg>
